<svg viewBox="1 -59 511.99997 511" xmlns="http://www.w3.org/2000/svg"><path d="m492.207031.5h-472.414062c-10.914063 0-19.792969 8.878906-19.792969 19.792969v134.269531c0 4.203125 3.40625 7.609375 7.613281 7.609375 4.203125 0 7.613281-3.40625 7.613281-7.609375v-134.269531c0-2.519531 2.046876-4.566407 4.566407-4.566407h472.414062c2.519531 0 4.566407 2.046876 4.566407 4.566407v35.101562c0 4.203125 3.410156 7.613281 7.613281 7.613281 4.207031 0 7.613281-3.410156 7.613281-7.613281v-35.101562c0-10.914063-8.878906-19.792969-19.792969-19.792969zm0 0"/><path d="m504.386719 78.230469c-4.203125 0-7.613281 3.40625-7.613281 7.613281v287.675781c0 2.515625-2.046876 4.566407-4.566407 4.566407h-472.414062c-2.519531 0-4.566407-2.050782-4.566407-4.566407v-188.507812c0-4.203125-3.410156-7.613281-7.613281-7.613281-4.207031 0-7.613281 3.410156-7.613281 7.613281v188.507812c0 10.914063 8.878906 19.792969 19.792969 19.792969h472.414062c10.914063 0 19.792969-8.878906 19.792969-19.792969v-287.675781c0-4.207031-3.410156-7.613281-7.613281-7.613281zm0 0"/><path d="m214.585938 37.988281c-79.269532 0-143.429688 64.144531-143.429688 143.425781 0 94.9375 90.261719 163.199219 181.3125 138.355469 4.054688-1.105469 6.449219-5.292969 5.339844-9.347656-1.105469-4.058594-5.296875-6.449219-9.347656-5.339844-81.515626 22.242188-162.078126-38.960937-162.078126-123.667969 0-70.851562 57.339844-128.199218 128.203126-128.199218 70.851562 0 128.199218 57.339844 128.199218 128.199218 0 49.398438-27.757812 91.667969-67.683594 113.058594-3.707031 1.988282-5.101562 6.601563-3.117187 10.308594 1.988281 3.703125 6.601563 5.097656 10.308594 3.113281 44.660156-23.925781 75.71875-71.203125 75.71875-126.480469 0-79.269531-64.148438-143.425781-143.425781-143.425781zm0 0"/><path d="m331.566406 181.414062c0-64.792968-52.347656-117.035156-116.980468-117.035156-64.683594 0-117.039063 52.34375-117.039063 117.035156 0 64.679688 52.34375 117.035157 117.039063 117.035157 64.253906 0 116.980468-51.925781 116.980468-117.035157zm-116.980468 101.808594c-91.15625 0-135.464844-110.328125-71.992188-173.800781 64.355469-64.355469 173.75-17.949219 173.75 71.992187 0 57.613282-46.859375 101.808594-101.757812 101.808594zm0 0"/><path d="m214.585938 155.730469c-22.679688 0-34.382813 27.617187-18.164063 43.84375 16.347656 16.351562 43.839844 4.410156 43.839844-18.160157 0-14.035156-11.28125-25.683593-25.675781-25.683593zm0 36.140625c-9.285157 0-14.019532-11.230469-7.394532-17.855469 6.675782-6.675781 17.84375-1.78125 17.84375 7.398437 0 5.472657-4.316406 10.457032-10.449218 10.457032zm0 0"/><path d="m59.484375 372.652344c30.578125 0 45.277344-36.949219 24.085937-58.144532-13.3125-13.308593-34.855468-13.308593-48.167968 0-21.566406 21.566407-5.945313 58.144532 24.082031 58.144532zm13.316406-47.375c7.363281 7.359375 7.363281 19.269531 0 26.632812-11.753906 11.753906-32.152343 3.523438-32.152343-13.316406 0-16.625 20.25-25.222656 32.152343-13.316406zm0 0"/><path d="m33.617188 245.738281c-17.457032 17.457031-5.222657 47.746094 19.777343 47.746094 24.894531 0 37.285157-30.242187 19.777344-47.746094-10.933594-10.929687-28.621094-10.933593-39.554687 0zm28.789062 10.765625c7.953125 7.953125 2.375 21.753906-9.011719 21.753906-7.042969 0-12.746093-5.695312-12.746093-12.742187.003906-11.304687 13.757812-17.007813 21.757812-9.011719zm0 0"/><path d="m406.375 254.933594-17.113281 17.582031c-3.144531-1.460937-6.609375-2.234375-10.179688-2.234375-6.457031 0-12.515625 2.507812-17.0625 7.054688l-36.195312 36.195312c-15.117188 15.117188-4.386719 41.167969 17.0625 41.167969 6.453125 0 12.515625-2.503907 17.0625-7.050781l36.195312-36.199219c4.546875-4.546875 7.042969-10.605469 7.042969-17.0625 0-4.058594-.996094-7.957031-2.863281-11.425781l16.953125-17.410157c9.277344-9.519531 14.382812-22.074219 14.382812-35.371093v-44.722657c25.414063-3.695312 44.996094-25.628906 44.996094-52.050781s-19.582031-48.355469-44.996094-52.050781v-14.878907h12.117188c7.371094 0 13.367187-6 13.367187-13.367187v-13.359375c0-7.367188-5.996093-13.367188-13.367187-13.367188h-38.234375c-7.371094 0-13.359375 6-13.359375 13.367188v13.359375c0 7.367187 5.988281 13.367187 13.359375 13.367187h10.890625v14.878907c-25.414063 3.695312-45.003906 25.628906-45.003906 52.050781s19.589843 48.355469 45.003906 52.050781v44.722657c0 9.296874-3.574219 18.085937-10.058594 24.753906zm-21 45.75-36.195312 36.203125c-1.675782 1.664062-3.910157 2.589843-6.292969 2.589843-7.980469 0-11.835938-9.667968-6.292969-15.175781l36.195312-36.207031c3.410157-3.410156 9.09375-3.492188 12.585938 0 3.539062 3.542969 3.359375 9.253906 0 12.589844zm76.054688-167.277344c0 18.007812-12.800782 33.078125-29.769532 36.601562v-11.15625c25.183594-7.542968 25.167969-43.339843 0-50.882812v-11.164062c16.96875 3.523437 29.769532 18.59375 29.769532 36.601562zm-29.769532 8.394531v-16.777343c4.972656 4.53125 4.933594 12.28125 0 16.777343zm-24.25-90.550781v-9.640625h34.511719v9.640625c-12.570313 0-21.636719 0-34.511719 0zm9.023438 90.5625c-4.957032-4.519531-4.976563-12.265625 0-16.800781zm-29.78125-8.40625c0-18.007812 12.808594-33.078125 29.78125-36.601562v11.164062c-25.246094 7.542969-25.128906 43.378906 0 50.882812v11.15625c-16.972656-3.523437-29.78125-18.59375-29.78125-36.601562zm0 0"/></svg>